<svg width="1440" height="400" viewBox="0 0 1440 400" fill="none" xmlns="http://www.w3.org/2000/svg">
  <rect width="1440" height="400" fill="#1a1a2e"/>
  <path d="M0 300L48 290C96 280 192 260 288 250C384 240 480 240 576 240C672 240 768 240 864 250C960 260 1056 280 1152 285C1248 290 1344 280 1392 275L1440 270V400H1392C1344 400 1248 400 1152 400C1056 400 960 400 864 400C768 400 672 400 576 400C480 400 384 400 288 400C192 400 96 400 48 400H0V300Z" fill="#0070f3" fill-opacity="0.1"/>
  <circle cx="100" cy="100" r="8" fill="#0070f3" fill-opacity="0.3"/>
  <circle cx="150" cy="150" r="6" fill="#0070f3" fill-opacity="0.2"/>
  <circle cx="200" cy="80" r="10" fill="#0070f3" fill-opacity="0.4"/>
  <circle cx="300" cy="120" r="5" fill="#0070f3" fill-opacity="0.3"/>
  <circle cx="400" cy="50" r="7" fill="#0070f3" fill-opacity="0.2"/>
  <circle cx="500" cy="170" r="9" fill="#0070f3" fill-opacity="0.4"/>
  <circle cx="600" cy="90" r="6" fill="#0070f3" fill-opacity="0.3"/>
  <circle cx="700" cy="140" r="8" fill="#0070f3" fill-opacity="0.2"/>
  <circle cx="800" cy="60" r="10" fill="#0070f3" fill-opacity="0.4"/>
  <circle cx="900" cy="180" r="5" fill="#0070f3" fill-opacity="0.3"/>
  <circle cx="1000" cy="70" r="7" fill="#0070f3" fill-opacity="0.2"/>
  <circle cx="1100" cy="150" r="9" fill="#0070f3" fill-opacity="0.4"/>
  <circle cx="1200" cy="90" r="6" fill="#0070f3" fill-opacity="0.3"/>
  <circle cx="1300" cy="130" r="8" fill="#0070f3" fill-opacity="0.2"/>
  <circle cx="1400" cy="40" r="10" fill="#0070f3" fill-opacity="0.4"/>
</svg>
